<?xml version="1.0" standalone="no"?>
<!DOCTYPE svg PUBLIC "-//W3C//DTD SVG 20010904//EN"
 "http://www.w3.org/TR/2001/REC-SVG-20010904/DTD/svg10.dtd">
<svg version="1.0" xmlns="http://www.w3.org/2000/svg"
 width="391.000000pt" height="391.000000pt" viewBox="0 0 391.000000 391.000000"
 preserveAspectRatio="xMidYMid meet">
<metadata>
Created by potrace 1.14, written by Peter Selinger 2001-2017
</metadata>
<g transform="translate(0.000000,391.000000) scale(0.100000,-0.100000)"
fill="#000000" stroke="none">
<path d="M2080 2961 c-58 -21 -123 -46 -145 -55 -22 -10 -88 -24 -147 -31 -60
-8 -147 -27 -196 -44 l-88 -31 -85 15 c-203 35 -495 46 -614 24 -69 -13 -146
-45 -229 -97 -34 -21 -96 -56 -140 -77 -43 -22 -98 -58 -122 -80 l-43 -40 -21
-143 c-11 -79 -20 -147 -20 -151 0 -5 -46 -11 -102 -15 -57 -4 -104 -8 -105
-10 -10 -10 -23 -271 -18 -356 40 -647 349 -1190 881 -1548 215 -144 504 -254
784 -298 142 -23 428 -23 570 0 554 87 1025 387 1341 852 150 223 260 508 305
794 21 129 22 436 2 560 l-13 85 -70 3 c-112 4 -107 0 -145 108 -24 66 -41
100 -55 106 -11 5 -38 37 -60 71 -56 86 -160 188 -226 220 -92 45 -153 54
-584 87 -92 7 -178 21 -293 50 -90 22 -184 40 -210 39 -28 0 -89 -15 -152 -38z
m-1233 -740 c43 -20 68 -53 59 -77 -9 -23 -36 -16 -66 16 -26 27 -34 30 -94
30 -74 0 -106 -20 -106 -65 0 -38 35 -61 127 -84 101 -24 128 -40 150 -85 55
-115 -86 -207 -253 -165 -45 12 -109 69 -101 92 8 26 45 17 80 -18 32 -32 39
-35 96 -35 73 0 118 20 127 56 12 45 -9 71 -73 90 -134 39 -155 47 -180 68
-17 15 -26 35 -30 67 -4 38 -1 50 22 77 15 17 41 36 58 41 55 16 139 12 184
-8z m435 9 c111 -31 171 -165 133 -296 -28 -98 -103 -154 -205 -154 -141 0
-231 109 -217 262 13 147 140 229 289 188z m1955 -9 c43 -20 68 -53 59 -77 -9
-23 -36 -16 -66 16 -26 27 -34 30 -94 30 -74 0 -106 -20 -106 -65 0 -38 35
-61 127 -84 101 -24 128 -40 150 -85 55 -115 -86 -207 -253 -165 -45 12 -109
69 -101 92 8 26 45 17 80 -18 32 -32 39 -35 96 -35 73 0 118 20 127 56 12 45
-9 71 -73 90 -134 39 -155 47 -180 68 -17 15 -26 35 -30 67 -4 38 -1 50 22 77
15 17 41 36 58 41 55 16 139 12 184 -8z m-1667 -186 l0 -195 110 0 110 0 0
-25 0 -25 -140 0 -140 0 0 220 0 220 30 0 30 0 0 -195z m370 -25 l0 -220 -30
0 -30 0 0 220 0 220 30 0 30 0 0 -220z m341 210 c131 -36 188 -181 125 -316
-41 -88 -99 -114 -252 -114 l-104 0 0 220 0 220 98 0 c53 0 113 -5 133 -10z
m291 -161 l3 -171 34 -30 c31 -28 39 -30 89 -26 47 4 60 10 84 37 l28 31 0
165 0 165 31 0 30 0 -3 -174 c-3 -199 -8 -213 -88 -253 -82 -42 -194 -19 -244
50 -19 26 -21 45 -24 203 l-3 174 30 0 30 0 3 -171z m-1862 -424 c16 -19 5
-34 -12 -17 -7 7 -25 12 -41 12 -42 0 -31 -30 18 -47 36 -12 54 -27 55 -45 0
-17 -35 -38 -65 -38 -32 0 -73 26 -60 38 3 3 11 0 17 -6 17 -17 75 -15 82 3 5
15 1 18 -71 46 -25 9 -30 38 -11 57 17 17 73 15 88 -3z m164 -6 c53 -41 18
-129 -51 -129 -31 0 -73 42 -73 73 0 13 9 36 21 51 25 32 66 34 103 5z m337
-44 l17 -60 17 63 c10 34 24 62 30 62 7 0 18 -25 25 -55 7 -30 16 -55 20 -55
4 0 13 25 20 55 7 30 19 55 25 55 9 0 6 -21 -9 -72 -14 -43 -28 -73 -36 -73
-8 0 -20 24 -30 59 l-16 59 -17 -62 c-10 -34 -23 -61 -30 -61 -7 0 -21 29 -31
68 -18 66 -20 68 -48 64 -27 -4 -28 -6 -28 -68 0 -36 -4 -64 -10 -64 -6 0 -10
28 -10 64 0 62 -1 64 -27 68 -16 2 -49 2 -75 0 -43 -4 -48 -7 -48 -28 0 -21 4
-24 40 -24 22 0 40 -4 40 -10 0 -5 -18 -10 -40 -10 -38 0 -40 -2 -40 -30 0
-16 -4 -30 -10 -30 -6 0 -10 32 -10 75 l0 76 132 -3 133 -3 16 -60z m272 -3
c15 -37 27 -71 27 -75 0 -16 -18 -6 -23 13 -8 30 -69 28 -90 -2 -28 -42 -25
-13 5 60 17 39 36 72 43 72 6 0 24 -30 38 -68z m165 56 c17 -17 15 -55 -5 -66
-15 -9 -14 -12 6 -41 16 -22 18 -31 9 -31 -8 0 -22 14 -31 30 -12 20 -26 30
-43 30 -20 0 -24 -5 -24 -30 0 -16 -4 -30 -10 -30 -6 0 -10 32 -10 75 l0 75
48 0 c26 0 53 -5 60 -12z m162 2 c0 -5 -20 -10 -45 -10 -38 0 -45 -3 -45 -20
0 -17 7 -20 46 -20 27 0 43 -4 39 -10 -3 -5 -24 -10 -46 -10 -35 0 -39 -3 -39
-25 0 -23 4 -25 44 -25 25 0 48 -4 51 -10 4 -6 -17 -10 -54 -10 l-61 0 0 75 0
75 55 0 c30 0 55 -4 55 -10z m208 -2 c7 -7 12 -16 12 -22 0 -6 -5 -5 -12 2
-20 20 -76 15 -88 -7 -14 -28 -12 -52 7 -73 17 -19 68 -25 78 -8 3 6 12 10 18
10 23 -1 -36 -40 -60 -40 -31 0 -73 42 -73 73 0 39 36 77 74 77 17 0 37 -5 44
-12z m166 -9 c53 -41 18 -129 -51 -129 -13 0 -35 11 -48 25 -30 30 -32 64 -4
99 25 32 66 34 103 5z m116 -37 l35 -57 3 58 c4 84 22 70 22 -18 0 -93 -13
-97 -60 -18 l-35 58 -3 -58 c-4 -84 -22 -70 -22 18 0 93 12 96 60 17z m200 43
c16 -19 5 -34 -12 -17 -7 7 -25 12 -41 12 -42 0 -31 -30 18 -47 36 -12 54 -27
55 -45 0 -17 -35 -38 -65 -38 -32 0 -73 26 -60 38 3 3 11 0 17 -6 17 -17 75
-15 82 3 5 15 1 18 -71 46 -25 9 -30 38 -11 57 17 17 73 15 88 -3z m72 -47 l3
-63 35 0 35 0 3 63 c4 78 22 82 22 5 0 -65 -18 -93 -61 -93 -44 0 -59 23 -59
91 0 79 18 76 22 -3z m158 -3 l0 -65 34 0 c19 0 38 -4 41 -10 4 -6 -13 -10
-44 -10 l-51 0 0 75 c0 43 4 75 10 75 6 0 10 -28 10 -65z m190 55 c0 -5 -11
-10 -25 -10 -24 0 -25 -2 -25 -65 0 -37 -4 -65 -10 -65 -6 0 -10 28 -10 65 0
62 -1 65 -24 65 -14 0 -28 5 -31 10 -4 6 18 10 59 10 37 0 66 -4 66 -10z m40
-65 c0 -43 -4 -75 -10 -75 -6 0 -10 32 -10 75 0 43 4 75 10 75 6 0 10 -32 10
-75z m100 17 l35 -57 3 58 c4 84 22 70 22 -18 0 -93 -13 -97 -60 -18 l-35 58
-3 -58 c-4 -84 -22 -70 -22 18 0 93 12 96 60 17z m216 44 c10 -8 16 -18 11
-22 -4 -4 -13 -2 -19 4 -20 20 -76 15 -88 -7 -24 -46 0 -91 49 -91 26 0 51 16
51 32 0 4 -11 8 -25 8 -14 0 -25 5 -25 10 0 6 14 10 30 10 27 0 30 -3 30 -30
0 -33 -22 -50 -65 -50 -33 0 -75 42 -75 75 0 57 79 95 126 61z"/>
<path d="M1133 2174 c-96 -47 -111 -224 -26 -306 32 -31 38 -33 103 -33 59 0
72 3 95 25 43 40 58 79 59 150 0 77 -21 122 -74 157 -40 28 -109 30 -157 7z"/>
<path d="M2110 2010 l0 -170 73 0 c92 0 133 20 165 81 19 36 23 56 20 106 -7
109 -60 153 -185 153 l-73 0 0 -170z"/>
<path d="M780 1611 c-26 -49 1 -94 54 -89 38 4 56 43 38 83 -9 20 -19 25 -46
25 -25 0 -38 -6 -46 -19z"/>
<path d="M1431 1600 c-14 -42 -15 -40 14 -40 29 0 29 -1 11 40 l-13 32 -12
-32z"/>
<path d="M1560 1605 c0 -24 3 -26 38 -23 29 2 37 7 37 23 0 16 -8 21 -37 23
-35 3 -38 1 -38 -23z"/>
<path d="M2090 1611 c-26 -49 1 -94 54 -89 38 4 56 43 38 83 -9 20 -19 25 -46
25 -25 0 -38 -6 -46 -19z"/>
</g>
</svg>
